<svg width="45" height="48" viewBox="0 0 45 48" fill="none" xmlns="http://www.w3.org/2000/svg">
<path d="M10.125 9.85017C10.8054 10.0949 11.5295 10.1864 12.2478 10.1182C12.966 10.05 13.6612 9.82374 14.2859 9.45504C14.9105 9.08634 15.4496 8.58389 15.8663 7.98217C16.2831 7.38045 16.5674 6.6937 16.7 5.96907L17.5 1.57439C20.7895 0.808536 24.2055 0.808536 27.495 1.57439L28.3 5.96907C28.4326 6.6937 28.7169 7.38045 29.1337 7.98217C29.5504 8.58389 30.0895 9.08634 30.7141 9.45504C31.3388 9.82374 32.034 10.05 32.7522 10.1182C33.4705 10.1864 34.1946 10.0949 34.875 9.85017L38.9975 8.36825C41.2923 10.8946 43.0019 13.9159 44 17.2087L40.675 20.1214C40.1274 20.6012 39.6878 21.1963 39.3864 21.866C39.085 22.5357 38.929 23.2641 38.929 24.0013C38.929 24.7384 39.085 25.4668 39.3864 26.1365C39.6878 26.8062 40.1274 27.4014 40.675 27.8811L44 30.7913C43.0019 34.0841 41.2923 37.1054 38.9975 39.6317L34.8725 38.1498C34.1921 37.9051 33.468 37.8136 32.7497 37.8818C32.0315 37.95 31.3363 38.1763 30.7116 38.545C30.087 38.9137 29.5479 39.4161 29.1312 40.0178C28.7144 40.6196 28.4301 41.3063 28.2975 42.0309L27.5 46.4256C24.2105 47.1915 20.7945 47.1915 17.505 46.4256L16.7 42.0309C16.5674 41.3063 16.2831 40.6196 15.8663 40.0178C15.4496 39.4161 14.9105 38.9137 14.2859 38.545C13.6612 38.1763 12.966 37.95 12.2478 37.8818C11.5295 37.8136 10.8054 37.9051 10.125 38.1498L6.0025 39.6317C3.70773 37.1054 1.99808 34.0841 1 30.7913L4.325 27.8786C4.87219 27.3988 5.3114 26.8038 5.61252 26.1344C5.91364 25.4649 6.06955 24.7368 6.06955 24C6.06955 23.2632 5.91364 22.5351 5.61252 21.8656C5.3114 21.1962 4.87219 20.6012 4.325 20.1214L1 17.2087C1.99734 13.9162 3.70613 10.8949 6 8.36825L10.125 9.85017ZM22.5 16.3349C24.4891 16.3349 26.3968 17.1424 27.8033 18.5799C29.2098 20.0174 30 21.9671 30 24C30 26.0329 29.2098 27.9826 27.8033 29.4201C26.3968 30.8576 24.4891 31.6651 22.5 31.6651C20.5109 31.6651 18.6032 30.8576 17.1967 29.4201C15.7902 27.9826 15 26.0329 15 24C15 21.9671 15.7902 20.0174 17.1967 18.5799C18.6032 17.1424 20.5109 16.3349 22.5 16.3349Z" stroke="black" stroke-width="2" stroke-linecap="round" stroke-linejoin="round"/>
</svg>
