<svg width="59" height="35" viewBox="0 0 59 35" fill="none" xmlns="http://www.w3.org/2000/svg">
<path d="M16.6411 12.7007C16.6411 13.4323 16.7001 14.0176 16.8477 14.515C16.9952 14.8662 17.2017 15.3344 17.4673 15.8612C17.5853 15.9783 17.6148 16.1538 17.6148 16.3002C17.6148 16.505 17.4968 16.6806 17.2312 16.8855L15.992 17.7048C15.815 17.8219 15.638 17.8804 15.4904 17.8804C15.2839 17.8804 15.1069 17.7634 14.9004 17.5878C14.6348 17.2952 14.3988 17.0025 14.1922 16.6806C14.0152 16.3587 13.8087 15.9783 13.6022 15.5393C12.0679 17.3244 10.1501 18.2316 7.81925 18.2316C6.16699 18.2316 4.86879 17.7634 3.89514 16.8269C2.95099 15.8905 2.44941 14.6321 2.44941 13.0518C2.44941 11.4423 3.03951 10.1254 4.21969 9.07191C5.42938 8.07692 7.02263 7.55017 9.02894 7.55017C9.70755 7.55017 10.3271 7.6087 11.1238 7.72575C11.8024 7.81355 12.599 7.95987 13.3661 8.13545V6.73077C13.3661 5.2383 13.0711 4.27258 12.4515 3.5995C11.8024 2.98495 10.7697 2.72157 9.26498 2.72157C8.55687 2.72157 7.84876 2.80937 7.14065 2.95569C6.40303 3.13127 5.69492 3.33612 5.01631 3.62876C4.69176 3.74582 4.42622 3.83361 4.33771 3.86288C4.19019 3.92141 4.10167 3.92141 4.01316 3.92141C3.74762 3.92141 3.60009 3.74582 3.60009 3.33612V2.3704C3.60009 2.07776 3.6296 1.84365 3.74762 1.69732C3.83613 1.551 4.01316 1.43395 4.2787 1.34615C4.98681 0.936455 5.78343 0.643812 6.75709 0.409699C7.75866 0.14995 8.79034 0.0220419 9.82556 0.0292649C12.1564 0.0292649 13.8677 0.556021 14.9594 1.60953C16.051 2.66304 16.5821 4.27257 16.5821 6.40886V12.7007H16.6411ZM8.67488 15.6856C9.32399 15.6856 9.97309 15.5686 10.6812 15.3344C11.3893 15.1003 12.0089 14.6614 12.54 14.0761C12.8645 13.6957 13.1006 13.286 13.2776 12.8177C13.2776 12.3495 13.4251 11.7935 13.4251 11.1204V10.3303C12.835 10.1254 12.2449 10.1254 11.5958 9.9791C10.9881 9.91324 10.3778 9.87419 9.76655 9.86204C8.43885 9.86204 7.4947 10.1254 6.8456 10.6522C6.1965 11.1789 5.90145 11.9105 5.90145 12.8763C5.90145 13.8127 6.10798 14.515 6.60956 14.954C7.08164 15.4515 7.76024 15.6856 8.67488 15.6856ZM24.4303 17.7634C24.1447 17.7718 23.8613 17.7116 23.6042 17.5878C23.5157 17.4415 23.3682 17.1781 23.2502 16.8269L18.6474 1.78512C18.5294 1.34615 18.4704 1.1413 18.4704 0.994984C18.4704 0.673077 18.6179 0.497492 18.9425 0.497492H20.8603C21.2438 0.497492 21.5094 0.556021 21.6274 0.702342C21.8044 0.819399 21.9224 1.08278 22.0405 1.46321L25.3155 14.3395L28.384 1.46321C28.4725 1.08278 28.5905 0.819399 28.7675 0.702342C28.915 0.585285 29.1806 0.497492 29.5051 0.497492H31.1279C31.4819 0.497492 31.7475 0.556021 31.895 0.702342C32.0425 0.819399 32.19 1.08278 32.2786 1.46321L35.406 14.515L38.7696 1.46321C38.8876 1.08278 39.0351 0.819399 39.1531 0.702342C39.3302 0.585285 39.5662 0.497492 39.9202 0.497492H41.7495C42.0741 0.497492 42.2511 0.673077 42.2511 0.994984C42.2511 1.08278 42.2216 1.19983 42.1921 1.34615C42.1921 1.34615 42.1331 1.58027 42.0741 1.78512L37.3238 16.8269C37.2058 17.2366 37.0878 17.4415 36.8813 17.5878C36.7633 17.7048 36.4977 17.7926 36.1732 17.7926H34.4914C34.1078 17.7926 33.9308 17.7341 33.6948 17.5878C33.4964 17.3792 33.3721 17.112 33.3407 16.8269L30.3018 4.27258L27.2628 16.7977C27.1743 17.1781 27.0562 17.4415 26.9087 17.5878C26.6651 17.7195 26.389 17.7803 26.1121 17.7634H24.4303ZM49.6568 18.2901C48.6831 18.2901 47.5914 18.1731 46.6178 17.939C45.6441 17.7048 44.877 17.4415 44.3754 17.1781C44.1192 17.0559 43.904 16.8628 43.7558 16.6221C43.6757 16.458 43.6353 16.2776 43.6378 16.0953V15.1003C43.6378 14.6906 43.7854 14.515 44.0804 14.515H44.4345C44.5525 14.515 44.7295 14.6614 44.936 14.7492C45.5851 15.0418 46.3227 15.2759 47.0899 15.4222C47.8865 15.5686 48.6831 15.6564 49.4207 15.6564C50.6599 15.6564 51.6336 15.4515 52.2827 15.0125C52.9613 14.5151 53.3153 13.959 53.3153 13.1689C53.3153 12.6129 53.1088 12.1739 52.7843 11.7935C52.4302 11.4423 51.7516 11.0911 50.8074 10.7985L47.9455 9.92057C46.5293 9.45234 45.4671 8.80853 44.818 7.9306C44.1846 7.11793 43.842 6.11919 43.8444 5.09197C43.8444 4.27258 44.0214 3.57023 44.3754 2.95569C44.7295 2.31187 45.2016 1.78512 45.7327 1.34615C46.3818 0.907191 47.0309 0.585284 47.8275 0.35117C48.5946 0.117057 49.4207 0 50.3059 0C50.7189 0 51.1615 0.0292648 51.6336 0.0877933C52.0466 0.146322 52.4597 0.234113 52.8728 0.292642C53.2858 0.409699 53.6399 0.497492 53.9939 0.614549C54.348 0.731605 54.584 0.848662 54.8201 0.965719C55.0856 1.11204 55.2921 1.25836 55.4102 1.43395C55.5282 1.60953 55.5872 1.81438 55.5872 2.07776V3.01421C55.5872 3.42391 55.4397 3.62876 55.1446 3.62876C54.9971 3.62876 54.7316 3.54097 54.3775 3.39465C53.2858 2.89716 52.0171 2.63378 50.6304 2.63378C49.5092 2.63378 48.6831 2.80937 48.0045 3.1898C47.4144 3.54097 47.0899 4.12625 47.0899 4.91639C47.0899 5.47241 47.2964 5.94063 47.68 6.2918C48.0635 6.67224 48.8011 7.02341 49.8338 7.37458L52.6367 8.25251C54.053 8.66221 55.0561 9.30602 55.6757 10.1254C56.2658 10.9156 56.5608 11.8227 56.5608 12.847C56.5608 13.6664 56.3838 14.4273 56.0593 15.1003C55.7052 15.7441 55.2331 16.3294 54.584 16.7977C54.0234 17.2952 53.2858 17.6463 52.4597 17.9097C51.6336 18.1731 50.6304 18.2901 49.6568 18.2901ZM53.3448 27.7717C46.8833 32.4833 37.5009 35 29.5051 35C18.1459 35 7.96677 30.8445 0.266075 23.9674C-0.353521 23.4114 0.207066 22.6798 0.944681 23.1187C9.26498 27.8888 19.5031 30.786 30.1247 30.786C37.2943 30.786 45.1721 29.3227 52.4007 26.2207C53.4924 25.7818 54.407 26.9816 53.3448 27.7717ZM56.0593 24.7575C55.2036 23.6747 50.5714 24.2308 48.4766 24.4649C47.857 24.5527 47.7685 23.9967 48.3291 23.587C52.0171 21.041 58.0951 21.8311 58.7737 22.6212C59.4818 23.4992 58.5967 29.5276 55.1446 32.3955C54.584 32.8344 54.0825 32.6003 54.3185 32.0736C55.1151 30.0836 56.8559 25.7525 56.0593 24.7575Z" fill="black"/>
</svg>
