<svg width="65" height="65" viewBox="0 0 65 65" fill="none" xmlns="http://www.w3.org/2000/svg">
<path d="M58.7905 2H40.7648C40.2043 1.99959 39.6665 2.22101 39.2688 2.61587L3.23203 38.644C2.44297 39.4367 2 40.5096 2 41.628C2 42.7464 2.44297 43.8193 3.23203 44.612L20.3924 61.7683C21.1853 62.5571 22.2585 63 23.3771 63C24.4958 63 25.5689 62.5571 26.3618 61.7683L62.3839 25.7548C62.7789 25.3572 63.0004 24.8195 63 24.2591V6.22308C63.0027 5.66898 62.8957 5.1198 62.6853 4.60717C62.4749 4.09454 62.1652 3.62857 61.774 3.23607C61.3827 2.84357 60.9177 2.5323 60.4057 2.32017C59.8937 2.10803 59.3448 1.99922 58.7905 2Z" stroke="black" stroke-width="4" stroke-linecap="round" stroke-linejoin="round"/>
</svg>
