<svg width="64" height="45" viewBox="0 0 64 45" fill="none" xmlns="http://www.w3.org/2000/svg">
<path d="M43.4287 22.9883C45.9517 22.9883 48.396 23.8475 50.3477 25.417C52.2992 26.9864 53.6378 29.1697 54.1387 31.5967L54.2217 31.9951H61.7139C62.19 31.9951 62.6452 32.1819 62.9795 32.5107C63.3134 32.8393 63.4999 33.283 63.5 33.7441C63.5 34.2053 63.3135 34.6499 62.9795 34.9785C62.6452 35.3072 62.1899 35.4932 61.7139 35.4932H54.2217L54.1387 35.8926C53.6377 38.3194 52.2991 40.503 50.3477 42.0723C48.396 43.6417 45.9517 44.5 43.4287 44.5C40.9058 44.5 38.4614 43.6416 36.5098 42.0723C34.5583 40.5029 33.2187 38.3194 32.7178 35.8926L32.6357 35.4932H2.28613C1.81011 35.4932 1.35476 35.3072 1.02051 34.9785C0.686499 34.6499 0.5 34.2053 0.5 33.7441C0.500061 33.283 0.686551 32.8393 1.02051 32.5107C1.35478 32.1819 1.80998 31.9951 2.28613 31.9951H32.6357L32.7178 31.5967C33.2187 29.1697 34.5582 26.9864 36.5098 25.417C38.4615 23.8475 40.9057 22.9883 43.4287 22.9883ZM43.4287 26.498C41.4802 26.498 39.6098 27.2593 38.2295 28.6172C36.8489 29.9755 36.0713 31.8197 36.0713 33.7441C36.0713 35.6687 36.8489 37.5127 38.2295 38.8711C39.6098 40.2292 41.4801 40.9912 43.4287 40.9912C45.3773 40.9912 47.2476 40.2291 48.6279 38.8711C50.0085 37.5127 50.7861 35.6687 50.7861 33.7441C50.7861 31.8197 50.0085 29.9755 48.6279 28.6172C47.2476 27.2592 45.3772 26.4981 43.4287 26.498ZM20.5713 0.5C23.0942 0.5 25.5386 1.35835 27.4902 2.92773C29.4417 4.49707 30.7813 6.68056 31.2822 9.10742L31.3643 9.50684H61.7139C62.1899 9.50684 62.6452 9.69282 62.9795 10.0215C63.3135 10.3501 63.5 10.7947 63.5 11.2559C63.4999 11.717 63.3134 12.1607 62.9795 12.4893C62.6452 12.8181 62.19 13.0049 61.7139 13.0049H31.3643L31.2822 13.4033C30.7813 15.8303 29.4418 18.0136 27.4902 19.583C25.5385 21.1525 23.0943 22.0117 20.5713 22.0117C18.0483 22.0117 15.604 21.1525 13.6523 19.583C11.7008 18.0136 10.3622 15.8302 9.86133 13.4033L9.77832 13.0049H2.28613C1.80999 13.0049 1.35478 12.8181 1.02051 12.4893C0.686552 12.1607 0.50006 11.717 0.5 11.2559C0.5 10.7947 0.686498 10.3501 1.02051 10.0215C1.35476 9.69282 1.81011 9.50684 2.28613 9.50684H9.77832L9.86133 9.10742C10.3623 6.68061 11.7009 4.49704 13.6523 2.92773C15.604 1.3583 18.0483 0.500032 20.5713 0.5ZM20.5713 4.00879C18.6227 4.00883 16.7524 4.77085 15.3721 6.12891C13.9915 7.48725 13.2139 9.33134 13.2139 11.2559C13.2139 12.2085 13.4051 13.1516 13.7754 14.0312C14.1458 14.911 14.6885 15.7103 15.3721 16.3828C16.0556 17.0553 16.8668 17.5886 17.7588 17.9521C18.6507 18.3156 19.6064 18.5019 20.5713 18.502C21.5361 18.502 22.4919 18.3155 23.3838 17.9521C24.2757 17.5887 25.087 17.0552 25.7705 16.3828C26.4541 15.7103 26.9968 14.911 27.3672 14.0312C27.7375 13.1515 27.9287 12.2085 27.9287 11.2559C27.9287 9.33129 27.1511 7.48726 25.7705 6.12891C24.3902 4.77084 22.5199 4.00879 20.5713 4.00879Z" fill="black" stroke="black"/>
</svg>
