<svg width="35" height="17" viewBox="0 0 35 17" fill="none" xmlns="http://www.w3.org/2000/svg">
<path d="M26.3911 0C23.5072 0 21.2075 1.45421 19.7863 2.67467L19.7362 2.71787L18.9268 3.60117L20.7135 6.54854L22.0359 5.21758C23.4197 4.04458 24.9643 3.4 26.3911 3.4C29.2702 3.4 31.6129 5.68792 31.6129 8.5C31.6129 11.3121 29.2702 13.6 26.3911 13.6C22.0161 13.6 19.0425 7.79521 19.0129 7.73642C18.8407 7.38721 15.0698 0 8.60887 0C3.862 0 0 3.81296 0 8.5C0 13.187 3.862 17 8.60887 17C10.934 17 13.2224 16.0714 15.2271 14.314L15.2702 14.2758L16.0732 13.3988L14.2858 10.4515L12.9571 11.7888C11.5726 12.9908 10.1091 13.6 8.60887 13.6C5.72984 13.6 3.3871 11.3121 3.3871 8.5C3.3871 5.68792 5.72984 3.4 8.60887 3.4C12.9839 3.4 15.9575 9.20479 15.9871 9.26358C16.1593 9.61279 19.9302 17 26.3911 17C31.138 17 35 13.187 35 8.5C35 3.81296 31.138 0 26.3911 0Z" fill="black"/>
</svg>
