<svg width="34" height="35" viewBox="0 0 34 35" fill="none" xmlns="http://www.w3.org/2000/svg">
<path fill-rule="evenodd" clip-rule="evenodd" d="M17.0031 28.2538V35C28.1256 35 36.7998 23.9278 33.1567 11.921C31.5769 6.68327 27.5092 2.51477 22.4193 0.86802C10.7564 -2.88223 0 6.04802 0 17.5H6.57472C6.57472 10.3163 13.4947 4.76002 20.8395 7.49702C22.1931 8.00952 23.4202 8.81483 24.4355 9.85689C25.4508 10.899 26.2298 12.1528 26.7184 13.531C29.3946 21.084 23.9905 28.2013 17.0221 28.2135V21.4883H10.4491V28.2555L17.0031 28.2538ZM10.4491 33.4338H5.41793V28.2538L10.4491 28.2555V33.4338ZM1.19478 28.2538H5.41793V23.905H1.1965L1.19478 28.2538Z" fill="black"/>
</svg>
