<svg width="82" height="82" viewBox="0 0 82 82" fill="none" xmlns="http://www.w3.org/2000/svg">
<path d="M41 0.25H76.1426C77.6297 0.25 79.0559 0.841036 80.1074 1.89258C81.159 2.94412 81.75 4.37031 81.75 5.85742V81.75H0.25V41C0.25 39.5129 0.841035 38.0867 1.89258 37.0352C2.94411 35.9837 4.37038 35.3926 5.85742 35.3926H35.3926V5.85742C35.3926 4.37038 35.9837 2.94411 37.0352 1.89258C38.0867 0.841035 39.5129 0.25 41 0.25ZM40.75 40.75H5.60742V76.3926H14.8926V52.7139C14.8927 52.0036 15.1755 51.3225 15.6777 50.8203C16.18 50.3181 16.861 50.0362 17.5713 50.0361H35.1426C35.853 50.0361 36.5348 50.318 37.0371 50.8203C37.5393 51.3225 37.8212 52.0037 37.8213 52.7139V76.3926H76.3926V5.60742H40.75V40.75ZM20.25 76.3926H32.4639V55.3926H20.25V76.3926Z" fill="black" stroke="black" stroke-width="0.5"/>
<path d="M70.0352 52.9639V58.3213H64.6777V52.9639H70.0352ZM52.4639 52.9639V58.3213H47.1064V52.9639H52.4639ZM70.0352 35.3926V40.75H64.6777V35.3926H70.0352ZM52.4639 35.3926V40.75H47.1064V35.3926H52.4639ZM70.0352 17.8213V23.1787H64.6777V17.8213H70.0352ZM52.4639 17.8213V23.1787H47.1064V17.8213H52.4639Z" fill="black" stroke="black" stroke-width="0.5"/>
</svg>
