<svg width="28" height="35" viewBox="0 0 28 35" fill="none" xmlns="http://www.w3.org/2000/svg">
<path d="M24.8864 12.2045C24.0987 11.1142 22.2922 8.87249 19.5124 5.5405C18.3063 4.09675 17.2718 2.87 16.7641 2.268L16.0499 1.428L15.7471 1.06925L15.5825 0.876749L15.551 0.829499L15.537 0.8225L14.8368 0L13.9458 0.71225C11.6698 2.53573 9.83369 4.84806 8.57355 7.47775C7.84093 8.93861 7.32777 10.4995 7.05062 12.11C6.9806 12.4635 6.92225 12.8222 6.87557 13.1862C6.53954 13.1579 6.20269 13.1404 5.86553 13.1337C4.74223 13.0943 3.61962 13.2294 2.53784 13.5345L2.07395 13.664L1.83589 14.0805C0.714759 16.0478 0.0876609 18.2577 0.00836702 20.5205C-0.0910007 23.3935 0.696713 26.2274 2.26449 28.6373C3.83227 31.0471 6.10411 32.9161 8.77136 33.9902L9.11621 34.1285L9.22124 34.1635H9.22474C10.6033 34.6623 12.0517 34.9416 13.517 34.9912C13.6838 34.9971 13.8507 35 14.0176 35C15.8667 35.003 17.6977 34.6352 19.4021 33.9185L19.4144 33.9237L19.8713 33.7137C22.2251 32.63 24.2315 30.9139 25.6666 28.7567C27.1018 26.5995 27.9092 24.0862 27.9988 21.497C28.041 18.137 26.944 14.8616 24.8864 12.2045ZM10.2173 31.185L9.88118 31.0555L9.7919 31.0205C7.71158 30.1613 5.94347 28.6873 4.72431 26.7957C3.50515 24.9041 2.89313 22.6854 2.97021 20.4365C3.02142 18.8089 3.43843 17.2137 4.19031 15.7692C4.6274 15.6723 5.07182 15.612 5.51893 15.589L5.63272 15.5855C5.85325 15.5803 6.07387 15.5803 6.2944 15.5855C6.48346 15.5942 6.67076 15.6222 6.85806 15.645C7.01832 18.0528 7.56075 20.4198 8.46502 22.6572C9.4294 25.0542 10.9077 27.2106 12.7958 28.9747C12.0536 29.8382 11.1841 30.5835 10.2173 31.185ZM10.8317 21.5845C10.1278 19.8342 9.67572 17.9929 9.48906 16.1157C10.0725 16.32 10.6305 16.5907 11.152 16.9225C12.8837 18.113 14.0977 19.9173 14.548 21.9695C14.643 22.343 14.7131 22.7224 14.7581 23.1052C14.8841 24.3088 14.7109 25.5249 14.2539 26.6455C12.7672 25.2201 11.6007 23.4949 10.8317 21.5845ZM13.8793 31.836C14.2206 31.4913 14.5437 31.1292 14.8473 30.751C15.2552 31.0607 15.6963 31.332 16.1252 31.6172C15.386 31.7667 14.6335 31.84 13.8793 31.836ZM23.388 26.6385C22.4241 28.1845 21.0943 29.4695 19.5159 30.38C18.3789 29.8055 17.2946 29.1321 16.2757 28.3675C17.2764 26.1722 17.468 23.6939 16.8166 21.371C16.2257 18.7536 14.658 16.4603 12.4334 14.959C11.5246 14.3817 10.5337 13.945 9.49431 13.664C9.5226 13.3736 9.55996 13.0841 9.60635 12.796C9.79069 11.8407 10.0632 10.9045 10.4203 9.99949C10.5569 9.65183 10.7045 9.31116 10.8632 8.9775L10.8702 8.96525C11.1153 8.47175 11.3884 7.973 11.7122 7.43925L11.84 7.22925H11.8365C12.5893 6.05335 13.492 4.98035 14.5217 4.03725L14.9191 4.508C15.8469 5.607 16.7221 6.6465 17.5151 7.59675C19.3006 9.73699 21.6148 12.5457 22.5075 13.7847C24.1661 15.9022 25.0583 18.5189 25.0387 21.2082C24.9722 23.1319 24.4031 25.0029 23.388 26.6385Z" fill="black"/>
</svg>
