<svg width="35" height="35" viewBox="0 0 35 35" fill="none" xmlns="http://www.w3.org/2000/svg">
<path d="M16.1 28.175C17.0333 30.3042 17.5 32.5792 17.5 35C17.5 32.5792 17.9521 30.3042 18.8563 28.175C19.7896 26.0458 21.0438 24.1938 22.6188 22.6188C24.1938 21.0438 26.0458 19.8042 28.175 18.9C30.3042 17.9667 32.5792 17.5 35 17.5C32.5792 17.5 30.3042 17.0479 28.175 16.1437C26.1027 15.2503 24.2177 13.9738 22.6188 12.3813C21.0262 10.7823 19.7497 8.89727 18.8563 6.825C17.9521 4.69583 17.5 2.42083 17.5 0C17.5 2.42083 17.0333 4.69583 16.1 6.825C15.1958 8.95417 13.9563 10.8062 12.3813 12.3813C10.7823 13.9738 8.89727 15.2503 6.825 16.1437C4.69583 17.0479 2.42083 17.5 0 17.5C2.42083 17.5 4.69583 17.9667 6.825 18.9C8.95417 19.8042 10.8062 21.0438 12.3813 22.6188C13.9563 24.1938 15.1958 26.0458 16.1 28.175Z" fill="black"/>
</svg>
