<svg width="27" height="27" viewBox="0 0 27 27" fill="none" xmlns="http://www.w3.org/2000/svg">
<path d="M17.1783 17.1783C16.1364 18.2201 14.7233 18.8054 13.2499 18.8054C11.7765 18.8054 10.3634 18.2201 9.32152 17.1783C8.27965 16.1364 7.69434 14.7233 7.69434 13.2499C7.69434 11.7765 8.27965 10.3634 9.32152 9.32152C10.3634 8.27965 11.7765 7.69434 13.2499 7.69434C14.7233 7.69434 16.1364 8.27965 17.1783 9.32152C18.2201 10.3634 18.8054 11.7765 18.8054 13.2499C18.8054 14.7233 18.2201 16.1364 17.1783 17.1783Z" stroke="black" stroke-width="1.5" stroke-linecap="round" stroke-linejoin="round"/>
<path d="M0.75 18.8056V7.69444C0.75 5.85266 1.48164 4.08632 2.78398 2.78398C4.08632 1.48164 5.85266 0.75 7.69444 0.75H18.8056C20.6473 0.75 22.4137 1.48164 23.716 2.78398C25.0184 4.08632 25.75 5.85266 25.75 7.69444V18.8056C25.75 20.6473 25.0184 22.4137 23.716 23.716C22.4137 25.0184 20.6473 25.75 18.8056 25.75H7.69444C5.85266 25.75 4.08632 25.0184 2.78398 23.716C1.48164 22.4137 0.75 20.6473 0.75 18.8056Z" stroke="black" stroke-width="1.5"/>
<path d="M20.8889 5.62465L20.9028 5.60938" stroke="black" stroke-width="1.5" stroke-linecap="round" stroke-linejoin="round"/>
</svg>
