<svg width="29" height="29" viewBox="0 0 29 29" fill="none" xmlns="http://www.w3.org/2000/svg">
<path d="M26.8556 0.000202752H2.14437C1.86659 -0.0036319 1.59077 0.046961 1.33267 0.149092C1.07456 0.251223 0.839225 0.402892 0.640097 0.595437C0.440969 0.787982 0.28195 1.01763 0.172121 1.27127C0.0622922 1.52491 0.003805 1.79757 0 2.07367V26.9263C0.003805 27.2024 0.0622922 27.4751 0.172121 27.7287C0.28195 27.9824 0.440969 28.212 0.640097 28.4046C0.839225 28.5971 1.07456 28.7488 1.33267 28.8509C1.59077 28.953 1.86659 29.0036 2.14437 28.9998H26.8556C27.1334 29.0036 27.4092 28.953 27.6673 28.8509C27.9254 28.7488 28.1608 28.5971 28.3599 28.4046C28.559 28.212 28.718 27.9824 28.8279 27.7287C28.9377 27.4751 28.9962 27.2024 29 26.9263V2.07367C28.9962 1.79757 28.9377 1.52491 28.8279 1.27127C28.718 1.01763 28.559 0.787982 28.3599 0.595437C28.1608 0.402892 27.9254 0.251223 27.6673 0.149092C27.4092 0.046961 27.1334 -0.0036319 26.8556 0.000202752ZM8.79628 24.2729H4.42002V11.223H8.79628V24.2729ZM6.60815 9.39607C6.00461 9.39607 5.42579 9.15776 4.99902 8.73356C4.57225 8.30935 4.33249 7.73401 4.33249 7.1341C4.33249 6.53419 4.57225 5.95885 4.99902 5.53465C5.42579 5.11045 6.00461 4.87213 6.60815 4.87213C6.92863 4.83601 7.25317 4.86757 7.56053 4.96476C7.86789 5.06195 8.15113 5.22258 8.3917 5.43612C8.63228 5.64966 8.82476 5.9113 8.95655 6.20391C9.08834 6.49653 9.15647 6.81351 9.15647 7.1341C9.15647 7.4547 9.08834 7.77168 8.95655 8.06429C8.82476 8.3569 8.63228 8.61854 8.3917 8.83208C8.15113 9.04563 7.86789 9.20625 7.56053 9.30344C7.25317 9.40063 6.92863 9.4322 6.60815 9.39607ZM24.58 24.2729H20.2037V17.2695C20.2037 15.515 19.5765 14.3695 17.9864 14.3695C17.4943 14.3731 17.0152 14.5265 16.6135 14.8091C16.2118 15.0917 15.9069 15.4899 15.7399 15.95C15.6258 16.2908 15.5763 16.6497 15.5941 17.0085V24.2584H11.2178V11.2085H15.5941V13.05C15.9916 12.3643 16.5698 11.7994 17.2664 11.4162C17.963 11.0329 18.7516 10.8458 19.5473 10.8751C22.4648 10.8751 24.58 12.7455 24.58 16.762V24.2729Z" fill="#003399"/>
</svg>
