<svg width="34" height="27" viewBox="0 0 34 27" fill="none" xmlns="http://www.w3.org/2000/svg">
<path d="M0.75 6.10667L12.3315 13.8633C13.9293 14.9317 14.7274 15.4667 15.5902 15.675C16.3534 15.8583 17.1482 15.8583 17.9098 15.675C18.7726 15.4667 19.5707 14.9317 21.1685 13.8633L32.75 6.10667M8.71433 25.75H24.7857C27.5732 25.75 28.9669 25.75 30.0322 25.205C30.9681 24.7254 31.729 23.9605 32.2058 23.02C32.75 21.95 32.75 20.55 32.75 17.75V8.75C32.75 5.95 32.75 4.55 32.2074 3.48C31.7302 2.53923 30.9687 1.77436 30.0322 1.295C28.9669 0.75 27.5732 0.75 24.7857 0.75H8.71433C5.92681 0.75 4.53305 0.75 3.46783 1.295C2.53187 1.77464 1.77102 2.53949 1.29423 3.48C0.75 4.55 0.75 5.95 0.75 8.75V17.75C0.75 20.55 0.75 21.95 1.29257 23.02C1.76979 23.9608 2.53125 24.7256 3.46783 25.205C4.53305 25.75 5.92681 25.75 8.71433 25.75Z" stroke="black" stroke-width="1.5" stroke-linecap="round" stroke-linejoin="round"/>
</svg>
