<svg width="35" height="35" viewBox="0 0 35 35" fill="none" xmlns="http://www.w3.org/2000/svg">
<path d="M27.412 27.3875L14.455 10.5H10.5V24.5H14V15.6555L24.6523 29.5382C21.5918 31.3592 17.9524 31.9453 14.475 31.1774C10.9976 30.4096 7.94346 28.3453 5.93439 25.4049C3.92532 22.4646 3.11231 18.8691 3.66084 15.3504C4.20938 11.8316 6.07823 8.65423 8.88698 6.46491C11.6957 4.27558 15.2332 3.23892 18.7794 3.56594C22.3255 3.89297 25.6138 5.55909 27.9748 8.22517C30.3358 10.8912 31.592 14.3569 31.4878 17.9165C31.3835 21.4762 29.9267 24.8624 27.4138 27.3857M17.5 35C27.1652 35 35 27.1652 35 17.5C35 7.83475 27.1652 0 17.5 0C7.83475 0 0 7.83475 0 17.5C0 27.1652 7.83475 35 17.5 35ZM21 17.5V10.5H24.5V17.5H21Z" fill="black"/>
</svg>
