<svg width="31" height="35" viewBox="0 0 31 35" fill="none" xmlns="http://www.w3.org/2000/svg">
<path d="M15.5 0C15.035 0 14.5528 0.12069 14.1567 0.344827L1.34333 7.75862C0.516667 8.24138 0 9.13793 0 10.1034V24.8966C0 25.8621 0.516667 26.7586 1.34333 27.2414L4.70167 29.1724C6.33778 29.9655 6.88889 29.9828 7.64667 29.9828C10.0578 29.9828 11.4528 28.5172 11.4528 25.9655V11.3621C11.4528 11.1552 11.2806 10.9828 11.0739 10.9828H9.47222C9.24833 10.9828 9.07611 11.1552 9.07611 11.3621V25.9655C9.07611 27.1034 7.905 28.2241 6.02778 27.2759L2.49722 25.2586C2.43924 25.2176 2.39182 25.1634 2.35888 25.1005C2.32594 25.0375 2.30843 24.9676 2.30778 24.8966V10.1034C2.30778 9.94828 2.37667 9.81035 2.49722 9.74138L15.3106 2.34483C15.4139 2.27586 15.5861 2.27586 15.6894 2.34483L28.5028 9.74138C28.6233 9.81035 28.6922 9.94828 28.6922 10.1034V24.8966C28.6922 25.0345 28.6233 25.1724 28.5028 25.2586L15.6894 32.6552C15.5861 32.7241 15.4139 32.7241 15.2933 32.6552L12.0556 30.6897C11.9178 30.6379 11.78 30.6207 11.6939 30.6724C10.7811 31.1897 10.6089 31.2931 9.765 31.5517C9.55833 31.6207 9.23111 31.7414 9.88556 32.1034L14.1567 34.6379C14.57 34.8793 15.0178 35 15.5 35C15.9822 35 16.43 34.8793 16.8433 34.6379L29.6567 27.2414C30.4833 26.7586 31 25.8621 31 24.8966V10.1034C31 9.13793 30.4833 8.24138 29.6567 7.75862L16.8433 0.344827C16.4472 0.12069 15.9822 0 15.5 0ZM18.9444 10.6034C15.2933 10.6034 13.1061 12.1379 13.1061 14.7241C13.1061 17.5 15.2761 18.3103 18.7894 18.6552C22.9744 19.069 23.3017 19.6897 23.3017 20.5172C23.3017 21.9483 22.1478 22.5517 19.4611 22.5517C16.0511 22.5517 15.3278 21.7069 15.0694 20.0172C15.0513 19.9299 15.0038 19.8515 14.9348 19.795C14.8659 19.7385 14.7797 19.7074 14.6906 19.7069H13.0372C12.8306 19.7069 12.6756 19.8621 12.6756 20.0862C12.6756 22.2241 13.8467 24.8103 19.4611 24.8103C23.5083 24.8103 25.8333 23.2069 25.8333 20.4138C25.8333 17.6379 23.9733 16.9138 20.0294 16.3793C16.0511 15.8621 15.655 15.5862 15.655 14.6552C15.655 13.8793 15.9994 12.8448 18.9444 12.8448C21.5278 12.8448 22.5439 13.4138 22.94 15.1897C22.9744 15.3621 23.1294 15.4828 23.3017 15.4828H24.9722C25.0583 15.4828 25.1617 15.4483 25.2306 15.3621C25.2994 15.2931 25.3511 15.1897 25.3167 15.0862C25.0756 12.0172 23.0433 10.6034 18.9444 10.6034Z" fill="black"/>
</svg>
