<svg width="35" height="35" viewBox="0 0 35 35" fill="none" xmlns="http://www.w3.org/2000/svg">
<path d="M22.9789 8.6723L23.6335 7.52332L22.9789 7.1415L22.3208 7.52332L22.9789 8.6723ZM27.8094 17.8765H29.1221V17.1111L28.4658 16.7293L27.8094 17.8765ZM12.5898 8.33821L11.9335 7.18923C11.7338 7.30566 11.568 7.47315 11.4528 7.67486C11.3376 7.87656 11.277 8.10535 11.2771 8.33821H12.5898ZM22.4084 26.6583L23.0647 27.8072C23.2643 27.6908 23.4301 27.5233 23.5453 27.3216C23.6606 27.1199 23.7211 26.8911 23.721 26.6583H22.4084ZM12.1785 26.4214L11.5222 27.5686C11.7217 27.685 11.9481 27.7462 12.1785 27.7462C12.4089 27.7462 12.6353 27.685 12.8348 27.5686L12.1785 26.4214ZM7.19044 17.3056H5.87779C5.87747 17.5382 5.93779 17.7669 6.05269 17.9686C6.16759 18.1703 6.33302 18.3379 6.53237 18.4545L7.19044 17.3056ZM17.4991 11.8647L16.8427 13.0137L21.752 15.8773L22.4084 14.7283L23.0647 13.5793L18.1554 10.7157L17.4991 11.8647ZM22.4084 14.7283H21.0957V20.4555H23.721V14.7283H22.4084ZM22.4084 20.4555L21.752 19.3066L16.8427 22.1702L17.4991 23.3191L18.1554 24.4664L23.0647 21.6027L22.4084 20.4555ZM17.4991 23.3191L18.1554 22.1702L13.2461 19.3066L12.5898 20.4555L11.9335 21.6045L16.8427 24.4664L17.4991 23.3191ZM12.5898 20.4555H13.9024V14.7283H11.2771V20.4555H12.5898ZM12.5898 14.7283L13.2461 15.8773L18.1554 13.0137L17.4991 11.8647L16.8427 10.7157L11.9335 13.5793L12.5898 14.7283ZM8.12329 5.32435L9.26091 5.98899C10.137 4.45708 11.5795 3.33922 13.2713 2.88113C14.9631 2.42304 16.7659 2.66221 18.2832 3.54608L18.9395 2.3971L19.5958 1.24812C17.4752 0.012245 14.9553 -0.322257 12.5905 0.318191C10.2257 0.958639 8.20958 2.52158 6.98567 4.66324L8.12329 5.32435ZM18.9395 2.3971L18.2832 3.54608C18.7977 3.84776 19.2563 4.20306 19.6588 4.61198L20.5864 3.67512L21.514 2.73826C20.9417 2.1597 20.2968 1.65756 19.5958 1.24812L18.9395 2.3971ZM20.5864 3.67512L21.0275 4.92309C21.7411 4.66717 22.4929 4.53625 23.2502 4.53597V1.88448C22.1633 1.88448 21.1167 2.07539 20.1454 2.42715L20.5864 3.67512ZM23.2502 3.21022V4.53597C25.0025 4.53597 26.683 5.23901 27.922 6.49042C29.1611 7.74184 29.8572 9.43912 29.8572 11.2089H32.4825C32.4825 8.7359 31.5098 6.3642 29.7784 4.61554C28.047 2.86687 25.6987 1.88448 23.2502 1.88448V3.21022ZM31.1698 11.2089H29.8572C29.8548 11.8111 29.779 12.3903 29.6296 12.9465L30.8968 13.2894L32.1639 13.6341C32.3746 12.8433 32.4817 12.0279 32.4825 11.2089H31.1698ZM30.8968 13.2894L30.0462 14.3005C30.608 14.7813 31.0998 15.3664 31.4901 16.0505L32.626 15.3859L33.7636 14.723C33.2343 13.7986 32.5524 12.9724 31.7474 12.2801L30.8968 13.2894ZM32.626 15.3859L31.4883 16.0487C31.9223 16.8076 32.204 17.6453 32.3174 18.5141C32.4308 19.3829 32.3736 20.2658 32.1492 21.1122C31.9247 21.9587 31.5374 22.7523 31.0093 23.4476C30.4812 24.1429 29.8227 24.7263 29.0713 25.1646L29.7277 26.3136L30.384 27.4625C31.4341 26.8502 32.3545 26.0349 33.0926 25.0632C33.8307 24.0915 34.3721 22.9825 34.6858 21.7995C34.9994 20.6164 35.0793 19.3826 34.9208 18.1684C34.7622 16.9542 34.3702 15.7835 33.7636 14.723L32.626 15.3859ZM29.7277 26.3136L29.0713 25.1646C28.5585 25.4651 28.0212 25.6825 27.4682 25.831L27.8077 27.1125L28.1472 28.3941C28.9086 28.1873 29.6629 27.8815 30.3822 27.4608L29.7277 26.3136ZM27.8077 27.1125L26.5161 26.8739C26.3795 27.6264 26.1167 28.3497 25.739 29.0128L26.8748 29.6739L28.0125 30.3368C28.555 29.3858 28.9138 28.3747 29.0976 27.3494L27.8077 27.1125ZM26.8748 29.6756L25.7372 29.011C24.8612 30.5429 23.4187 31.6608 21.7268 32.1189C20.035 32.577 18.2323 32.3378 16.715 31.4539L16.0587 32.6029L15.4023 33.7519C17.523 34.9878 20.0428 35.3223 22.4076 34.6818C24.7725 34.0414 26.7886 32.4784 28.0125 30.3368L26.8748 29.6756ZM16.0587 32.6029L16.715 31.4539C16.2116 31.1603 15.7485 30.8014 15.3376 30.3863L14.41 31.3231L13.4789 32.26C14.0389 32.8256 14.683 33.3329 15.4023 33.7519L16.0587 32.6029ZM14.41 31.3231L13.9672 30.0751C13.2547 30.3313 12.5042 30.4628 11.7479 30.464V33.1155C12.8049 33.1138 13.8538 32.9297 14.8493 32.5711L14.41 31.3231ZM11.7479 31.7898V30.464C9.99566 30.464 8.31515 29.761 7.0761 28.5096C5.83705 27.2582 5.14096 25.5609 5.14096 23.7911H2.51568C2.51568 26.2641 3.48836 28.6358 5.21974 30.3845C6.95113 32.1331 9.29939 33.1155 11.7479 33.1155V31.7898ZM3.83007 23.7911H5.14096C5.14213 23.1877 5.21972 22.6085 5.37024 22.0535L4.10135 21.7106L2.83421 21.3659C2.62471 22.1569 2.51705 22.9723 2.51743 23.7911H3.83007ZM4.10135 21.7106L4.95194 20.6995C4.39188 20.2187 3.90183 19.6336 3.51153 18.9495L2.37391 19.6141L1.23629 20.277C1.77885 21.2262 2.46667 22.0447 3.25076 22.7199L4.10135 21.7106ZM2.37391 19.6141L3.51153 18.9513C3.07756 18.1927 2.79578 17.3551 2.6823 16.4866C2.56881 15.618 2.62584 14.7353 2.85012 13.889C3.0744 13.0426 3.46154 12.2492 3.98944 11.554C4.51734 10.8588 5.17566 10.2754 5.9268 9.83719L5.27223 8.68997L4.61591 7.53923C3.56583 8.15142 2.64546 8.96657 1.90738 9.93809C1.16929 10.9096 0.627943 12.0185 0.314262 13.2014C0.000580851 14.3842 -0.0792888 15.6179 0.0792149 16.832C0.237719 18.046 0.63149 19.2167 1.23804 20.277L2.37391 19.6141ZM5.27223 8.68997L5.9268 9.83719C6.4293 9.54366 6.96943 9.31783 7.52997 9.16548L7.19044 7.88569L6.8509 6.60413C6.06859 6.81652 5.3172 7.13148 4.61591 7.541L5.27223 8.68997ZM7.19044 7.88569L8.48208 8.12432C8.61334 7.39428 8.87062 6.67307 9.26091 5.98899L8.12504 5.32612L6.98567 4.66324C6.45709 5.58793 6.09067 6.59706 5.8988 7.64706L7.19044 7.88569ZM17.4991 11.8647L18.1554 13.0137L20.8944 11.4175L23.6335 9.81951L22.9754 8.67053L22.3208 7.52332L19.5818 9.11952L16.8427 10.7175L17.4991 11.8647ZM22.4084 14.7283L21.752 15.8773L27.1514 19.0237L27.8077 17.8765L28.464 16.7275L23.0647 13.5811L22.4084 14.7283ZM27.8077 27.1125H29.1203V17.8765H26.4951V27.1125H27.8077ZM12.5898 14.7283H13.9024V8.33821H11.2771V14.7283H12.5898ZM22.4084 20.4555H21.0957V26.6583H23.721V20.4538L22.4084 20.4555ZM17.4991 23.3191L16.8427 22.1702L11.5222 25.2724L12.1785 26.4214L12.8348 27.5686L18.1554 24.4664L17.4991 23.3191ZM7.19044 7.88569L5.87779 7.88392V17.3056H8.50308V7.88392L7.19044 7.88569ZM12.5898 20.452L13.2461 19.3048L7.84501 16.1566L7.19044 17.3056L6.53237 18.4528L11.9335 21.601L12.5898 20.452ZM22.9772 8.67053L22.3191 9.81951L30.2405 14.4366L30.8968 13.2877L31.5531 12.1387L23.6317 7.52155L22.9772 8.67053ZM12.5898 8.33821L13.2461 9.48542L21.2445 4.82056L20.5864 3.67158L19.9301 2.52437L11.9335 7.18923L12.5898 8.33821ZM14.41 31.3231L15.0646 32.4703L23.0647 27.8037L22.4084 26.6547L21.752 25.5075L13.7537 30.1741L14.41 31.3231ZM4.10135 21.7088L3.44328 22.8578L11.5222 27.5686L12.1785 26.4179L12.8348 25.2706L4.75592 20.5598L4.10135 21.7088Z" fill="black"/>
</svg>
