<svg width="48" height="48" viewBox="0 0 48 48" fill="none" xmlns="http://www.w3.org/2000/svg">
<path d="M1 47H47M8.01244 18.3573L40.8667 3.43289M34.3653 1L40.8667 3.43289L38.4338 9.95467M11.7333 32.6889H5.6C5.19498 32.6942 4.80804 32.8574 4.52163 33.1438C4.23521 33.4303 4.07196 33.8172 4.06667 34.2222V47H13.2667V34.2222C13.2614 33.8172 13.0981 33.4303 12.8117 33.1438C12.5253 32.8574 12.1384 32.6942 11.7333 32.6889ZM27.0667 24.5111H20.9333C20.5283 24.5164 20.1414 24.6797 19.855 24.9661C19.5685 25.2525 19.4053 25.6394 19.4 26.0444V47H28.6V26.0444C28.5947 25.6394 28.4315 25.2525 28.145 24.9661C27.8586 24.6797 27.4717 24.5164 27.0667 24.5111ZM42.4 16.3333H36.2667C35.8616 16.3386 35.4747 16.5019 35.1883 16.7883C34.9019 17.0747 34.7386 17.4616 34.7333 17.8667V47H43.9333V17.8667C43.928 17.4616 43.7648 17.0747 43.4784 16.7883C43.192 16.5019 42.805 16.3386 42.4 16.3333Z" stroke="black" stroke-width="2" stroke-linecap="round" stroke-linejoin="round"/>
</svg>
