<svg width="37" height="37" viewBox="0 0 37 37" fill="none" xmlns="http://www.w3.org/2000/svg">
<path d="M18.25 9.73649H9.73649M9.73649 9.73649H6.85703C5.33027 9.73649 3.76757 10.0922 2.8273 11.2954C1.82459 12.58 0.75 14.767 0.75 18.25C0.75 21.7311 1.82459 23.92 2.8273 25.2046C3.76757 26.4078 5.33027 26.7635 6.85703 26.7635H9.73649M9.73649 9.73649V6.85703C9.73649 5.33027 10.0922 3.76757 11.2954 2.8273C12.58 1.82459 14.767 0.75 18.25 0.75C21.7311 0.75 23.92 1.82459 25.2046 2.8273C26.4078 3.76757 26.7635 5.33027 26.7635 6.85703V9.73649M18.25 26.7635H26.7635M26.7635 26.7635H29.6411C31.1678 26.7635 32.7324 26.4078 33.6708 25.2046C34.6754 23.92 35.75 21.733 35.75 18.25C35.75 14.7689 34.6754 12.58 33.6727 11.2954C32.7324 10.0922 31.1678 9.73649 29.643 9.73649H26.7635M26.7635 26.7635V29.6411C26.7635 31.1678 26.4078 32.7324 25.2046 33.6708C23.92 34.6754 21.733 35.75 18.25 35.75C14.7689 35.75 12.58 34.6754 11.2954 33.6727C10.0922 32.7324 9.73649 31.1678 9.73649 29.643V26.7635M26.7635 9.73649V14.4662C26.7635 15.4697 26.3649 16.4322 25.6553 17.1418C24.9457 17.8514 23.9833 18.25 22.9797 18.25H13.5203C12.5167 18.25 11.5543 18.6486 10.8447 19.3582C10.1351 20.0678 9.73649 21.0303 9.73649 22.0338V26.7635" stroke="black" stroke-width="1.5" stroke-linecap="round" stroke-linejoin="round"/>
<path d="M23.9256 30.5467C23.9256 30.923 23.7761 31.2839 23.51 31.55C23.2439 31.8161 22.883 31.9656 22.5067 31.9656C22.1303 31.9656 21.7694 31.8161 21.5033 31.55C21.2372 31.2839 21.0877 30.923 21.0877 30.5467C21.0877 30.1704 21.2372 29.8095 21.5033 29.5434C21.7694 29.2773 22.1303 29.1278 22.5067 29.1278C22.883 29.1278 23.2439 29.2773 23.51 29.5434C23.7761 29.8095 23.9256 30.1704 23.9256 30.5467ZM12.5742 5.95212C12.5742 5.5758 12.7237 5.21489 12.9898 4.94879C13.2559 4.6827 13.6168 4.5332 13.9931 4.5332C14.3695 4.5332 14.7304 4.6827 14.9965 4.94879C15.2626 5.21489 15.4121 5.5758 15.4121 5.95212C15.4121 6.32844 15.2626 6.68935 14.9965 6.95545C14.7304 7.22155 14.3695 7.37104 13.9931 7.37104C13.6168 7.37104 13.2559 7.22155 12.9898 6.95545C12.7237 6.68935 12.5742 6.32844 12.5742 5.95212Z" fill="black"/>
</svg>
