<svg width="35" height="39" viewBox="0 0 35 39" fill="none" xmlns="http://www.w3.org/2000/svg">
<path d="M15.7352 16.4541C15.1335 16.7985 14.6483 17.3121 14.341 17.9298C14.0337 18.5476 13.9181 19.2418 14.0088 19.9247C14.0995 20.6075 14.3924 21.2484 14.8505 21.7663C15.3086 22.2842 15.9113 22.6558 16.5825 22.8341C17.2536 23.0124 17.9631 22.9894 18.621 22.7681C19.279 22.5468 19.856 22.137 20.2791 21.5906C20.7022 21.0443 20.9523 20.3858 20.9979 19.6985C21.0434 19.0112 20.8824 18.326 20.5351 17.7294C20.3045 17.3332 19.9974 16.9859 19.6313 16.7074C19.2652 16.4289 18.8474 16.2246 18.4017 16.1061C17.9559 15.9877 17.491 15.9575 17.0335 16.0172C16.576 16.0769 16.1349 16.2254 15.7352 16.4541ZM31.4824 20.2332C31.2516 19.9719 31.0083 19.71 30.7526 19.4474C30.9309 19.2602 31.1041 19.0736 31.2719 18.8877C34.4292 15.3699 35.763 11.8404 34.5276 9.72075C33.3433 7.6869 29.8202 7.08045 25.4078 7.93065C24.9737 8.01515 24.5416 8.11005 24.1114 8.21535C24.0288 7.93455 23.9416 7.65505 23.8498 7.37685C22.3528 2.9055 19.9351 -0.00194902 17.4644 9.80279e-07C15.0959 9.80279e-07 12.8061 2.72415 11.3445 6.9381C11.2003 7.3541 11.0671 7.7727 10.9452 8.1939C10.658 8.1237 10.3695 8.0587 10.0796 7.9989C5.4253 7.05315 1.67785 7.67715 0.444433 9.8007C-0.737835 11.8346 0.497546 15.1632 3.45027 18.5211C3.74403 18.8526 4.04566 19.1776 4.35516 19.4961C3.98927 19.8679 3.64502 20.2391 3.3224 20.6096C0.440499 23.9207 -0.724064 27.1928 0.456236 29.2188C1.67588 31.3131 5.37022 31.9976 9.86913 31.1201C10.2337 31.0486 10.5963 30.968 10.957 30.8783C11.0881 31.3346 11.233 31.7876 11.3917 32.2374C12.8474 36.3656 15.1234 39 17.484 39C19.9233 39 22.3666 36.1666 23.8478 31.865C23.9645 31.5243 24.0754 31.1727 24.1803 30.81C24.6458 30.9244 25.1147 31.0258 25.5868 31.1142C29.9205 31.9274 33.3611 31.2897 34.5394 29.2617C35.7571 27.1655 34.5 23.6516 31.4824 20.2332ZM1.90014 10.6314C2.65946 9.3249 5.72234 8.814 9.74127 9.633C9.99831 9.685 10.2599 9.7435 10.5262 9.8085C10.1335 11.5291 9.85619 13.2737 9.69602 15.0306C8.24709 16.0413 6.86525 17.1434 5.55907 18.33C5.27186 18.0349 4.99187 17.7327 4.71909 17.4233C2.18734 14.549 1.18802 11.858 1.90014 10.6314ZM9.54652 21.801C8.54326 21.0464 7.60886 20.2742 6.76101 19.4981C7.60689 18.7259 8.5413 17.9576 9.54455 17.2049C9.50783 17.9706 9.49013 18.7369 9.49144 19.5039C9.49144 20.2709 9.5098 21.0366 9.54652 21.801ZM9.54652 29.484C7.84163 29.8621 6.08089 29.9242 4.3532 29.6673C3.87964 29.6301 3.41876 29.4973 2.99892 29.277C2.57909 29.0566 2.20917 28.7535 1.91194 28.3862C1.19392 27.1577 2.1303 24.5291 4.59516 21.6977C4.90466 21.3428 5.22465 20.997 5.55514 20.6603C6.86155 21.8546 8.24617 22.962 9.69996 23.9753C9.86264 25.7543 10.1426 27.5209 10.538 29.2637C10.2101 29.3456 9.87897 29.4197 9.54455 29.486M23.5114 13.8099C22.8518 13.3978 22.1843 12.9994 21.5089 12.6146C20.8427 12.235 20.1692 11.869 19.4886 11.5167C20.6079 11.0491 21.7496 10.6359 22.9095 10.2785C23.1706 11.4447 23.3715 12.6234 23.5114 13.8099ZM12.936 7.47825C14.1871 3.87075 16.0401 1.66725 17.4683 1.66725C18.9889 1.6653 20.964 4.04235 22.2564 7.9014C22.3403 8.1536 22.419 8.4071 22.4925 8.6619C20.7959 9.18324 19.1359 9.81511 17.5234 10.5534C15.9164 9.80562 14.2602 9.16651 12.5661 8.64045C12.6802 8.25045 12.8035 7.86305 12.936 7.47825ZM12.1491 10.2551C13.3043 10.6144 14.4402 11.0322 15.5523 11.507C14.1726 12.2116 12.8297 12.9792 11.5235 13.8099C11.6809 12.5658 11.8914 11.3744 12.1491 10.2551ZM11.5255 25.1921C12.1773 25.6068 12.8389 26.0052 13.5104 26.3874C14.1949 26.7774 14.888 27.1518 15.5897 27.5106C14.4695 28.0014 13.3244 28.4342 12.1589 28.8074C11.8877 27.614 11.6763 26.4081 11.5255 25.194M22.2584 31.3287C21.7365 32.981 20.9108 34.5234 19.823 35.8781C19.5544 36.2663 19.2085 36.596 18.8066 36.8468C18.4047 37.0977 17.9553 37.2644 17.486 37.3367C16.0519 37.3367 14.2244 35.2209 12.9812 31.6894C12.8343 31.2722 12.6992 30.851 12.576 30.4259C14.2782 29.8822 15.941 29.2242 17.5529 28.4564C19.1795 29.1997 20.8532 29.8374 22.5633 30.3654C22.4688 30.6891 22.3672 31.0102 22.2584 31.3287ZM22.9705 28.7469C21.7949 28.3839 20.6381 27.9634 19.5043 27.4872C20.1718 27.1401 20.844 26.7729 21.5207 26.3855C22.2157 25.9877 22.8924 25.5801 23.5508 25.1628C23.4198 26.3666 23.2261 27.5629 22.9705 28.7469ZM23.8498 19.4981C23.8498 20.6824 23.8124 21.8654 23.7377 23.0471C22.7659 23.6997 21.7469 24.3315 20.6807 24.9425C19.6184 25.5496 18.5712 26.106 17.5391 26.6117C16.4546 26.0969 15.391 25.5418 14.3484 24.9464C13.3123 24.3549 12.2999 23.725 11.3111 23.0568C11.2193 21.8738 11.1734 20.6895 11.1734 19.5039C11.1734 18.3196 11.218 17.136 11.3071 15.953C13.284 14.6136 15.3607 13.4252 17.5195 12.3981C18.5896 12.9142 19.6407 13.4674 20.6728 14.0576C21.7089 14.6478 22.7252 15.2711 23.7219 15.9276C23.8072 17.1158 23.8498 18.306 23.8498 19.4981ZM25.7304 9.5667C29.5113 8.83935 32.3598 9.3288 33.0738 10.5554C33.8351 11.8619 32.7453 14.744 30.0169 17.7821C29.8661 17.9498 29.71 18.1181 29.5487 18.2871C28.22 17.096 26.8109 15.9962 25.3311 14.9955C25.1823 13.2579 24.9161 11.5322 24.5344 9.82995C24.9409 9.73115 25.3396 9.6434 25.7304 9.5667ZM25.4747 17.1425C26.4735 17.8644 27.4335 18.6376 28.3507 19.4591C27.4376 20.2935 26.4809 21.0798 25.4845 21.8147C25.5147 21.0425 25.5298 20.2703 25.5298 19.4981C25.5298 18.7129 25.5114 17.9277 25.4747 17.1425ZM33.0857 28.431C32.3696 29.6615 29.6077 30.1743 25.8996 29.4801C25.4747 29.4008 25.0393 29.3059 24.5934 29.1954C24.9661 27.4712 25.2205 25.7239 25.3547 23.9655C26.8314 22.9473 28.236 21.83 29.5585 20.6213C29.7906 20.8592 30.011 21.0958 30.2195 21.3311C31.4031 22.6046 32.3388 24.0842 32.9794 25.6952C33.1844 26.1199 33.2996 26.5817 33.3179 27.0522C33.3362 27.5227 33.2571 27.9919 33.0857 28.431Z" fill="black"/>
</svg>
