<svg width="72" height="84" viewBox="0 0 72 84" fill="none" xmlns="http://www.w3.org/2000/svg">
<path d="M53.6455 28.2295L30 51.876L18.3535 40.2295L22.2295 36.3535L29.8232 43.9463L30 44.124L30.1768 43.9463L49.7695 24.3535L53.6455 28.2295Z" fill="black" stroke="black" stroke-width="0.5"/>
<path d="M6 0.25H66C67.525 0.250006 68.9871 0.856243 70.0654 1.93457C71.1438 3.0129 71.75 4.47501 71.75 6V45L71.7461 45.5566C71.6551 51.3015 70.0512 56.925 67.0918 61.8574C64.037 66.9489 59.6524 71.1122 54.4102 73.9004L36 83.7168L17.5898 73.9004C12.3476 71.1122 7.96304 66.9489 4.9082 61.8574C1.85336 56.7658 0.24304 50.9377 0.25 45V6C0.25 4.47501 0.856244 3.0129 1.93457 1.93457C2.9455 0.923642 4.29367 0.327349 5.71484 0.256836L6 0.25ZM5.75 45C5.74666 49.9403 7.08787 54.7883 9.62988 59.0244C12.172 63.2606 15.8195 66.7256 20.1807 69.0469L35.8828 77.4199L36 77.4824L36.1172 77.4199L51.8193 69.0498C56.1809 66.7283 59.8289 63.2632 62.3711 59.0264C64.9132 54.7897 66.2539 49.9408 66.25 45V5.75H5.75V45Z" fill="black" stroke="black" stroke-width="0.5"/>
</svg>
