<svg width="54" height="35" viewBox="0 0 54 35" fill="none" xmlns="http://www.w3.org/2000/svg">
<path d="M42.4286 23.3333V0H38.5714V27.2222H54V23.3333H42.4286ZM30.8571 0H23.1429C22.1199 0 21.1388 0.409722 20.4154 1.13903C19.6921 1.86834 19.2857 2.85749 19.2857 3.88889V23.3333C19.2857 24.3647 19.6921 25.3539 20.4154 26.0832C21.1388 26.8125 22.1199 27.2222 23.1429 27.2222H25.0714V31.1111C25.0714 32.1425 25.4778 33.1317 26.2012 33.861C26.9245 34.5903 27.9056 35 28.9286 35H32.7857V31.1111H28.9286V27.2222H30.8571C31.8801 27.2222 32.8612 26.8125 33.5846 26.0832C34.3079 25.3539 34.7143 24.3647 34.7143 23.3333V3.88889C34.7143 2.85749 34.3079 1.86834 33.5846 1.13903C32.8612 0.409722 31.8801 0 30.8571 0ZM23.1429 23.3333V3.88889H30.8571V23.3333H23.1429ZM11.5714 27.2222H0V23.3333H11.5714V15.5556H3.85714C2.83417 15.5556 1.85309 15.1458 1.12973 14.4165C0.406376 13.6872 0 12.6981 0 11.6667V3.88889C0 2.85749 0.406376 1.86834 1.12973 1.13903C1.85309 0.409722 2.83417 0 3.85714 0H15.4286V3.88889H3.85714V11.6667H11.5714C12.5944 11.6667 13.5755 12.0764 14.2988 12.8057C15.0222 13.535 15.4286 14.5242 15.4286 15.5556V23.3333C15.4286 24.3647 15.0222 25.3539 14.2988 26.0832C13.5755 26.8125 12.5944 27.2222 11.5714 27.2222Z" fill="black"/>
</svg>
