<svg width="22" height="21" viewBox="0 0 22 21" fill="none" xmlns="http://www.w3.org/2000/svg">
<path d="M5 14H16V20H5V14Z" fill="#013499"/>
<path d="M3.5 14C4.60457 14 5.5 13.1046 5.5 12C5.5 10.8954 4.60457 10 3.5 10C2.39543 10 1.5 10.8954 1.5 12C1.5 13.1046 2.39543 14 3.5 14Z" fill="#FFA726"/>
<path d="M17.5 14C18.6046 14 19.5 13.1046 19.5 12C19.5 10.8954 18.6046 10 17.5 10C16.3954 10 15.5 10.8954 15.5 12C15.5 13.1046 16.3954 14 17.5 14Z" fill="#FFA726"/>
<path d="M18 8.49983C18 2.14983 3 4.34983 3 8.49983V13.4998C3 17.6498 6.35 20.9998 10.5 20.9998C14.65 20.9998 18 17.6498 18 13.4998V8.49983Z" fill="white"/>
<path d="M13.5 13C14.0523 13 14.5 12.5523 14.5 12C14.5 11.4477 14.0523 11 13.5 11C12.9477 11 12.5 11.4477 12.5 12C12.5 12.5523 12.9477 13 13.5 13Z" fill="#784719"/>
<path d="M7.5 13C8.05228 13 8.5 12.5523 8.5 12C8.5 11.4477 8.05228 11 7.5 11C6.94772 11 6.5 11.4477 6.5 12C6.5 12.5523 6.94772 13 7.5 13Z" fill="#784719"/>
<path d="M10.5 0C6.25 0 0 2.9 0 16.8L5 20V11L13.4 6.1L16 9.5V20L21 15.9C21 13.1 20.55 1.4 13.3 1.4L12.6 0H10.5Z" fill="#013499"/>
<path d="M21 11C20.7 11 20.5 11.2 20.5 11.5V8C20.5 3.6 16.9 0 12.5 0H8C7.7 0 7.5 0.2 7.5 0.5C7.5 0.8 7.7 1 8 1H12.5C16.35 1 19.5 4.15 19.5 8V13C19.5 13.3 19.7 13.5 20 13.5C20.3 13.5 20.5 13.3 20.5 13V14C20.5 15.95 18.95 17.5 17 17.5H10.5C10.2 17.5 10 17.7 10 18C10 18.3 10.2 18.5 10.5 18.5H17C19.5 18.5 21.5 16.5 21.5 14V11.5C21.5 11.2 21.3 11 21 11Z" fill="#D82425"/>
<path d="M21 10H20.5C19.95 10 19.5 10.45 19.5 11V13C19.5 13.55 19.95 14 20.5 14H21C21.55 14 22 13.55 22 13V11C22 10.45 21.55 10 21 10Z" fill="#013499"/>
<path d="M10.5 19C11.0523 19 11.5 18.5523 11.5 18C11.5 17.4477 11.0523 17 10.5 17C9.94772 17 9.5 17.4477 9.5 18C9.5 18.5523 9.94772 19 10.5 19Z" fill="#013499"/>
</svg>
