<svg width="46" height="46" viewBox="0 0 46 46" fill="none" xmlns="http://www.w3.org/2000/svg">
<path d="M23 2.875C21.8563 2.875 20.7594 3.32935 19.9506 4.1381C19.1419 4.94685 18.6875 6.04375 18.6875 7.1875C18.6875 8.33125 19.1419 9.42815 19.9506 10.2369C20.7594 11.0456 21.8563 11.5 23 11.5C24.1437 11.5 25.2406 11.0456 26.0494 10.2369C26.8581 9.42815 27.3125 8.33125 27.3125 7.1875C27.3125 6.04375 26.8581 4.94685 26.0494 4.1381C25.2406 3.32935 24.1437 2.875 23 2.875ZM15.8125 7.1875C15.8125 5.28126 16.5698 3.45309 17.9177 2.10517C19.2656 0.757252 21.0938 0 23 0C24.9062 0 26.7344 0.757252 28.0823 2.10517C29.4302 3.45309 30.1875 5.28126 30.1875 7.1875C30.1875 9.09374 29.4302 10.9219 28.0823 12.2698C26.7344 13.6177 24.9062 14.375 23 14.375C21.0938 14.375 19.2656 13.6177 17.9177 12.2698C16.5698 10.9219 15.8125 9.09374 15.8125 7.1875ZM38.8125 5.75C38.05 5.75 37.3187 6.0529 36.7796 6.59207C36.2404 7.13124 35.9375 7.8625 35.9375 8.625C35.9375 9.3875 36.2404 10.1188 36.7796 10.6579C37.3187 11.1971 38.05 11.5 38.8125 11.5C39.575 11.5 40.3063 11.1971 40.8454 10.6579C41.3846 10.1188 41.6875 9.3875 41.6875 8.625C41.6875 7.8625 41.3846 7.13124 40.8454 6.59207C40.3063 6.0529 39.575 5.75 38.8125 5.75ZM33.0625 8.625C33.0625 7.10001 33.6683 5.63747 34.7466 4.55914C35.825 3.4808 37.2875 2.875 38.8125 2.875C40.3375 2.875 41.8 3.4808 42.8784 4.55914C43.9567 5.63747 44.5625 7.10001 44.5625 8.625C44.5625 10.15 43.9567 11.6125 42.8784 12.6909C41.8 13.7692 40.3375 14.375 38.8125 14.375C37.2875 14.375 35.825 13.7692 34.7466 12.6909C33.6683 11.6125 33.0625 10.15 33.0625 8.625ZM4.3125 8.625C4.3125 7.8625 4.6154 7.13124 5.15457 6.59207C5.69373 6.0529 6.425 5.75 7.1875 5.75C7.95 5.75 8.68126 6.0529 9.22043 6.59207C9.7596 7.13124 10.0625 7.8625 10.0625 8.625C10.0625 9.3875 9.7596 10.1188 9.22043 10.6579C8.68126 11.1971 7.95 11.5 7.1875 11.5C6.425 11.5 5.69373 11.1971 5.15457 10.6579C4.6154 10.1188 4.3125 9.3875 4.3125 8.625ZM7.1875 2.875C5.66251 2.875 4.19997 3.4808 3.12164 4.55914C2.0433 5.63747 1.4375 7.10001 1.4375 8.625C1.4375 10.15 2.0433 11.6125 3.12164 12.6909C4.19997 13.7692 5.66251 14.375 7.1875 14.375C8.71249 14.375 10.175 13.7692 11.2534 12.6909C12.3317 11.6125 12.9375 10.15 12.9375 8.625C12.9375 7.10001 12.3317 5.63747 11.2534 4.55914C10.175 3.4808 8.71249 2.875 7.1875 2.875ZM8.9125 37.3693L8.625 37.375C7.10001 37.375 5.63747 36.7692 4.55914 35.6909C3.4808 34.6125 2.875 33.15 2.875 31.625V20.8438C2.875 20.6531 2.95073 20.4703 3.08552 20.3355C3.22031 20.2007 3.40313 20.125 3.59375 20.125H8.66525C8.78025 19.0699 9.154 18.0895 9.71463 17.25H3.59375C1.61 17.25 5.12844e-08 18.86 5.12844e-08 20.8438V31.625C-0.000134164 32.8558 0.263173 34.0725 0.77223 35.1931C1.28129 36.3137 2.0243 37.3124 2.95135 38.1221C3.87839 38.9318 4.96799 39.5337 6.14694 39.8873C7.32589 40.2409 8.56687 40.3381 9.7865 40.1724C9.40025 39.2703 9.10739 38.331 8.9125 37.3693ZM36.2135 40.1724C36.593 40.2241 36.9802 40.25 37.375 40.25C39.6625 40.25 41.8563 39.3413 43.4738 37.7238C45.0913 36.1063 46 33.9125 46 31.625V20.8438C46 18.86 44.39 17.25 42.4062 17.25H36.2854C36.8489 18.0895 37.2198 19.0699 37.3348 20.125H42.4062C42.5969 20.125 42.7797 20.2007 42.9145 20.3355C43.0493 20.4703 43.125 20.6531 43.125 20.8438V31.625C43.1252 32.4044 42.9669 33.1758 42.6598 33.8921C42.3527 34.6085 41.9031 35.255 41.3384 35.7922C40.7738 36.3295 40.1057 36.7463 39.375 37.0174C38.6442 37.2885 37.866 37.4082 37.0875 37.3693C36.8926 38.331 36.5997 39.2703 36.2135 40.1724ZM15.0938 17.25C13.11 17.25 11.5 18.86 11.5 20.8438V34.5C11.5 37.55 12.7116 40.4751 14.8683 42.6317C17.0249 44.7884 19.95 46 23 46C26.05 46 28.9751 44.7884 31.1317 42.6317C33.2884 40.4751 34.5 37.55 34.5 34.5V20.8438C34.5 18.86 32.89 17.25 30.9062 17.25H15.0938ZM14.375 20.8438C14.375 20.6531 14.4507 20.4703 14.5855 20.3355C14.7203 20.2007 14.9031 20.125 15.0938 20.125H30.9062C31.0969 20.125 31.2797 20.2007 31.4145 20.3355C31.5493 20.4703 31.625 20.6531 31.625 20.8438V34.5C31.625 36.7875 30.7163 38.9813 29.0988 40.5988C27.4813 42.2163 25.2875 43.125 23 43.125C20.7125 43.125 18.5187 42.2163 16.9012 40.5988C15.2837 38.9813 14.375 36.7875 14.375 34.5V20.8438Z" fill="black"/>
</svg>
