<svg width="70" height="53" viewBox="0 0 70 53" fill="none" xmlns="http://www.w3.org/2000/svg">
<path d="M5.125 51.5H26.875C27.8364 51.5 28.7584 51.1237 29.4383 50.454C30.1181 49.7842 30.5 48.8758 30.5 47.9286V5.07143C30.5 4.12423 30.1181 3.21582 29.4383 2.54605C28.7584 1.87628 27.8364 1.5 26.875 1.5H5.125C4.16359 1.5 3.24156 1.87628 2.56174 2.54605C1.88192 3.21582 1.5 4.12423 1.5 5.07143V47.9286C1.5 48.8758 1.88192 49.7842 2.56174 50.454C3.24156 51.1237 4.16359 51.5 5.125 51.5Z" stroke="black" stroke-width="3" stroke-linecap="square"/>
<path d="M39.5 1.5H64.875C65.8364 1.5 66.7584 1.87628 67.4383 2.54605C68.1181 3.21582 68.5 4.12423 68.5 5.07143V22.9286C68.5 23.8758 68.1181 24.7842 67.4383 25.454C66.7584 26.1237 65.8364 26.5 64.875 26.5H43.125C42.1636 26.5 41.2416 26.8763 40.5617 27.546C39.8819 28.2158 39.5 29.1242 39.5 30.0714V51.5H68.5" stroke="black" stroke-width="3" stroke-linecap="square"/>
</svg>
