<svg width="36" height="36" viewBox="0 0 36 36" fill="none" xmlns="http://www.w3.org/2000/svg">
<path d="M0.5 18C0.5 13.3587 2.34374 8.90752 5.62563 5.62563C8.90752 2.34374 13.3587 0.5 18 0.5C22.6413 0.5 27.0925 2.34374 30.3744 5.62563C33.6563 8.90752 35.5 13.3587 35.5 18C35.5 22.6413 33.6563 27.0925 30.3744 30.3744C27.0925 33.6563 22.6413 35.5 18 35.5C13.3587 35.5 8.90752 33.6563 5.62563 30.3744C2.34374 27.0925 0.5 22.6413 0.5 18ZM35.5 18H0.5" stroke="black" stroke-linecap="round" stroke-linejoin="round"/>
<path d="M24.7311 18C24.4005 24.3996 22.0433 30.5282 18.0003 35.5C13.9573 30.5282 11.6001 24.3996 11.2695 18C11.6001 11.6004 13.9573 5.47175 18.0003 0.5C22.0433 5.47175 24.4005 11.6004 24.7311 18Z" stroke="black" stroke-linecap="round" stroke-linejoin="round"/>
</svg>
